<?xml version="1.0" encoding="utf-8"?>
<!-- Generator: Adobe Illustrator 25.2.3, SVG Export Plug-In . SVG Version: 6.00 Build 0)  -->
<svg version="1.1" id="Layer_1" xmlns="http://www.w3.org/2000/svg" xmlns:xlink="http://www.w3.org/1999/xlink" x="0px" y="0px"
	 viewBox="0 0 593.78 107.04" style="enable-background:new 0 0 593.78 107.04;" xml:space="preserve">
<style type="text/css">
	.st0{fill:#1A1F25;}
	.st1{fill:#0176FF;}
	.st2{fill:#FFFFFF;}
	.st3{clip-path:url(#SVGID_2_);fill:#1A1F25;}
	.st4{opacity:0.1;clip-path:url(#SVGID_2_);}
	.st5{opacity:0.2;}
	.st6{fill:#FF00FF;}
	.st7{fill:none;stroke:#1A1F25;stroke-miterlimit:10;}
	.st8{enable-background:new    ;}
	.st9{clip-path:url(#SVGID_4_);enable-background:new    ;}
	.st10{fill:#5CA7FF;}
	.st11{fill:#57A4FF;}
	.st12{fill:#52A1FF;}
	.st13{fill:#4C9EFF;}
	.st14{fill:#459BFF;}
	.st15{fill:#3E97FF;}
	.st16{fill:#3692FF;}
	.st17{fill:#2C8DFF;}
	.st18{fill:#1F86FF;}
	.st19{fill:#0174FA;}
	.st20{fill:#0171F5;}
	.st21{fill:#016FF0;}
	.st22{fill:#016DEB;}
	.st23{fill:#016AE6;}
	.st24{fill:#0168E0;}
	.st25{fill:#0165DB;}
	.st26{fill:#0163D6;}
	.st27{fill:#0161D1;}
	.st28{fill:#015ECC;}
	.st29{fill:#015CC7;}
	.st30{fill:#015AC2;}
	.st31{fill:#0157BD;}
	.st32{fill:#0155B8;}
	.st33{fill:#0153B3;}
	.st34{fill:#0150AD;}
	.st35{fill:#014EA8;}
	.st36{fill:#014CA3;}
	.st37{fill:#01499E;}
	.st38{fill:#014799;}
	.st39{fill:#61AAFF;}
	.st40{fill:#66ADFF;}
	.st41{fill:#6BAFFF;}
	.st42{fill:#6FB1FF;}
	.st43{fill:#73B4FF;}
	.st44{fill:#77B6FF;}
	.st45{fill:#7BB8FF;}
	.st46{fill:#7FBAFF;}
	.st47{fill:#82BCFF;}
	.st48{clip-path:url(#SVGID_6_);enable-background:new    ;}
	.st49{fill:#014494;}
	.st50{fill:#01428F;}
	.st51{fill:#01408A;}
	.st52{fill:#013D85;}
	.st53{clip-path:url(#SVGID_8_);enable-background:new    ;}
	.st54{clip-path:url(#SVGID_10_);enable-background:new    ;}
	.st55{clip-path:url(#SVGID_12_);enable-background:new    ;}
	.st56{clip-path:url(#SVGID_14_);enable-background:new    ;}
	.st57{clip-path:url(#SVGID_16_);enable-background:new    ;}
	.st58{clip-path:url(#SVGID_18_);enable-background:new    ;}
	.st59{clip-path:url(#SVGID_20_);enable-background:new    ;}
	.st60{clip-path:url(#SVGID_22_);enable-background:new    ;}
	.st61{clip-path:url(#SVGID_24_);enable-background:new    ;}
	.st62{fill:none;stroke:#0176FF;stroke-miterlimit:10;}
	.st63{fill:#263544;}
	.st64{fill:#F2F2F2;}
</style>
<g>
	<path class="st2" d="M62.85,64.93c0,7.54-5.58,11.85-16.67,11.85H25.77V32.41h19.14c9.89,0,15.59,4.18,15.59,11.41
		c0,5.07-2.73,8.43-6.78,10.08C59.43,55.17,62.85,58.91,62.85,64.93z M30.46,36.28v16.1h14.13c7.1,0,11.22-2.73,11.22-8.05
		s-4.12-8.05-11.22-8.05H30.46z M58.16,64.55c0-5.77-4.25-8.3-12.04-8.3H30.46v16.67h15.66C53.91,72.92,58.16,70.38,58.16,64.55z"/>
	<path class="st2" d="M86.44,43.19v4.37c-0.38,0-0.76-0.06-1.08-0.06c-6.97,0-11.22,4.44-11.22,12.3v16.99h-4.5V43.44h4.31v6.53
		C76.04,45.53,80.29,43.19,86.44,43.19z"/>
	<path class="st2" d="M86.94,60.11c0-9.89,7.23-16.92,16.99-16.92c9.76,0,16.92,7.04,16.92,16.92c0,9.89-7.16,16.99-16.92,16.99
		C94.16,77.1,86.94,70,86.94,60.11z M116.28,60.11c0-7.8-5.26-12.99-12.36-12.99c-7.1,0-12.42,5.2-12.42,12.99
		c0,7.8,5.32,12.99,12.42,12.99C111.02,73.11,116.28,67.91,116.28,60.11z"/>
	<path class="st2" d="M151.93,56.12v20.66h-4.31v-5.2c-2.03,3.42-5.96,5.51-11.47,5.51c-7.54,0-12.17-3.93-12.17-9.7
		c0-5.13,3.3-9.44,12.87-9.44h10.58v-2.03c0-5.71-3.23-8.81-9.44-8.81c-4.31,0-8.37,1.52-11.09,3.93l-2.03-3.36
		c3.36-2.85,8.3-4.5,13.56-4.5C147.05,43.19,151.93,47.5,151.93,56.12z M147.43,66.77v-5.45h-10.46c-6.47,0-8.56,2.54-8.56,5.96
		c0,3.87,3.11,6.28,8.43,6.28C141.91,73.55,145.65,71.14,147.43,66.77z"/>
	<path class="st2" d="M191.18,29.75v47.03h-4.31v-6.59c-2.73,4.5-7.35,6.91-12.87,6.91c-9.51,0-16.61-6.91-16.61-16.99
		s7.1-16.92,16.61-16.92c5.32,0,9.89,2.28,12.68,6.59V29.75H191.18z M186.75,60.11c0-7.8-5.32-12.99-12.36-12.99
		c-7.1,0-12.42,5.2-12.42,12.99c0,7.8,5.32,12.99,12.42,12.99C181.42,73.11,186.75,67.91,186.75,60.11z"/>
	<path class="st2" d="M233.39,60.11c0,10.08-7.1,16.99-16.61,16.99c-5.51,0-10.14-2.41-12.87-6.91v6.59h-4.31V29.75h4.5v20.03
		c2.79-4.31,7.35-6.59,12.68-6.59C226.29,43.19,233.39,50.04,233.39,60.11z M228.89,60.11c0-7.8-5.39-12.99-12.42-12.99
		c-7.1,0-12.42,5.2-12.42,12.99c0,7.8,5.32,12.99,12.42,12.99C223.5,73.11,228.89,67.91,228.89,60.11z"/>
	<path class="st2" d="M264.47,56.12v20.66h-4.31v-5.2c-2.03,3.42-5.96,5.51-11.47,5.51c-7.54,0-12.17-3.93-12.17-9.7
		c0-5.13,3.3-9.44,12.87-9.44h10.58v-2.03c0-5.71-3.23-8.81-9.44-8.81c-4.31,0-8.37,1.52-11.09,3.93l-2.03-3.36
		c3.36-2.85,8.3-4.5,13.56-4.5C259.59,43.19,264.47,47.5,264.47,56.12z M259.97,66.77v-5.45h-10.46c-6.47,0-8.56,2.54-8.56,5.96
		c0,3.87,3.11,6.28,8.43,6.28C254.46,73.55,258.2,71.14,259.97,66.77z"/>
	<path class="st2" d="M303.32,57.45v19.33h-4.5V57.89c0-7.04-3.68-10.65-10.01-10.65c-7.16,0-11.66,4.44-11.66,12.04v17.49h-4.5
		V43.44h4.31v6.15c2.41-4.06,6.91-6.4,12.68-6.4C297.74,43.19,303.32,47.88,303.32,57.45z"/>
	<path class="st2" d="M342.6,29.75v47.03h-4.31v-6.59c-2.73,4.5-7.35,6.91-12.87,6.91c-9.51,0-16.61-6.91-16.61-16.99
		s7.1-16.92,16.61-16.92c5.32,0,9.89,2.28,12.68,6.59V29.75H342.6z M338.17,60.11c0-7.8-5.32-12.99-12.36-12.99
		c-7.1,0-12.42,5.2-12.42,12.99c0,7.8,5.32,12.99,12.42,12.99C332.84,73.11,338.17,67.91,338.17,60.11z"/>
	<path class="st2" d="M483.39,32.41v44.37h-10.27V58.59h-20.16v18.19h-10.27V32.41h10.27v17.49h20.16V32.41H483.39z"/>
	<path class="st2" d="M524.78,42.68v34.1h-9.38v-4.06c-2.6,2.98-6.4,4.56-10.58,4.56c-8.56,0-14.58-4.82-14.58-15.34V42.68h9.89
		v17.81c0,5.71,2.54,8.24,6.91,8.24c4.56,0,7.86-2.92,7.86-9.19V42.68H524.78z"/>
	<path class="st2" d="M568.01,59.73c0,10.71-7.42,17.56-16.99,17.56c-4.56,0-8.24-1.46-10.71-4.44v3.93h-9.44V29.75h9.89V46.3
		c2.54-2.79,6.02-4.12,10.27-4.12C560.59,42.18,568.01,49.02,568.01,59.73z M557.99,59.73c0-5.89-3.74-9.44-8.68-9.44
		s-8.68,3.55-8.68,9.44s3.74,9.44,8.68,9.44S557.99,65.63,557.99,59.73z"/>
</g>
<g>
	<path class="st64" d="M366.27,61.69l7.72,7.07c-0.09,0.08-0.17,0.19-0.23,0.3c-0.77-0.22-1.46-0.64-2.17-1.03
		c-0.85-0.48-1.72-0.92-2.57-1.4c-0.16-0.09-0.24-0.31-0.39-0.44c-0.11-0.1-0.25-0.19-0.39-0.21c-0.75-0.06-1.51-0.13-2.27-0.14
		c-0.41,0-0.58-0.18-0.57-0.56c0.01-0.64-0.25-1.21-0.7-1.54c-0.43-0.32-0.59-0.99-1.23-1.03c-0.06,0-0.15-0.08-0.17-0.14
		c-0.23-0.6-0.8-0.66-1.27-0.82c-0.26-0.09-0.44-0.19-0.49-0.38l0-0.01c-0.02-0.09-0.01-0.21,0.03-0.35c0-0.01,0.01-0.02,0.01-0.04
		l2.8-0.12c0.13,0.6,0.68,1.04,1.32,1.01C365.89,61.86,366.09,61.8,366.27,61.69z"/>
	<path class="st2" d="M363.62,51.28l1.59,8.07c-0.47,0.15-0.81,0.56-0.87,1.05l-2.76,0.12c-0.04-0.28-0.18-0.54-0.31-0.8
		c-0.02-0.03-0.03-0.06-0.05-0.09c-0.25-0.48-0.52-0.96-0.73-1.46c-0.06-0.15,0.1-0.38,0.12-0.58c0.02-0.17,0.06-0.47-0.01-0.5
		c-0.65-0.34-0.45-0.87-0.37-1.5c0.1,0.18,0.16,0.29,0.22,0.4c0.04-0.03,0.09-0.07,0.14-0.1c-0.04-0.23-0.07-0.46-0.12-0.68
		c-0.38,0.18-0.64-0.02-0.69-0.46c-0.04-0.29-0.12-0.6-0.26-0.85c-0.3-0.54-0.35-1.08-0.2-1.69c0.07-0.29-0.02-0.67-0.14-0.96
		c-0.26-0.62-0.26-0.77,0.14-1.29c0.14-0.18,0.24-0.37,0.32-0.57l1.65,0.35l1.1,0.24l0,0.06C362.41,50.71,362.96,51.25,363.62,51.28
		z"/>
	<path class="st64" d="M368.74,42.69c0.01,0.29,0.12,0.55,0.29,0.75l-4.68,5.43c-0.21-0.13-0.46-0.2-0.73-0.19
		c-0.53,0.02-0.98,0.36-1.16,0.83l-1.11-0.24l-0.27-0.06l-1.34-0.29c0.06-0.35,0.06-0.72,0.02-1.1c-0.08-0.81,0.04-1.6,0.5-2.3
		c0.25-0.38,0.45-0.8,0.6-1.23c0.36-1.06,0.7-2.12,0.98-3.2c0.21-0.81,0.21-1.64,0.1-2.46c0.18-0.33,0.37-0.67,0.56-0.99
		c0.37,0.18,0.74,0.37,1.12,0.53c0.35,0.15,0.44,0.36,0.31,0.73c-0.07,0.19-0.09,0.42-0.15,0.72c0.46-0.33,0.66-0.99,0.55-1.4
		c-0.05-0.17,0.02-0.37,0-0.55c-0.02-0.24-0.07-0.48-0.12-0.77c0.13,0.01,0.26,0.01,0.38,0.04c0.2,0.05,0.4,0.11,0.6,0.16h0
		l0.52,0.63l0.05,0.06l3.27,4C368.85,42.03,368.73,42.35,368.74,42.69z"/>
	<path class="st2" d="M373.47,54.09l-6.97,5.54c-0.22-0.2-0.51-0.33-0.83-0.34l-1.59-8.07c0.53-0.18,0.91-0.69,0.89-1.28
		c-0.01-0.28-0.11-0.54-0.27-0.74l4.68-5.44c0.21,0.13,0.45,0.19,0.71,0.18c0.08,0,0.15-0.01,0.23-0.03l3.59,8.5
		c-0.37,0.24-0.61,0.66-0.59,1.14C373.33,53.73,373.38,53.92,373.47,54.09z"/>
	<path class="st2" d="M374.67,54.77l-0.03,13.65c-0.09,0.02-0.17,0.04-0.25,0.08l-7.77-7.1c0.2-0.24,0.31-0.55,0.3-0.87
		c-0.01-0.18-0.05-0.36-0.13-0.52l6.98-5.55C374.01,54.66,374.33,54.78,374.67,54.77L374.67,54.77z"/>
	<path class="st64" d="M385.44,57.7l-10.15,10.76c-0.06-0.02-0.13-0.04-0.19-0.04l0.03-13.76c0.34-0.14,0.6-0.43,0.71-0.78
		l9.36,2.85c-0.02,0.08-0.02,0.17-0.02,0.26C385.2,57.26,385.28,57.5,385.44,57.7z"/>
	<path class="st2" d="M387.35,69.65l-4.73,3.24c-0.23-0.2-0.35-0.47-0.37-0.83c-0.03-0.44-0.21-0.83-0.55-1.15
		c-0.57-0.54-1.08-1.13-1.64-1.69c-0.13-0.13-0.31-0.26-0.48-0.29c-0.67-0.08-1.33-0.12-2.04-0.17c-0.04,0.27-0.08,0.48-0.13,0.75
		c-0.43-0.05-0.86-0.11-1.28-0.16c-0.07-0.26-0.22-0.49-0.42-0.65l10.07-10.67c0.2,0.13,0.43,0.2,0.68,0.21l1.64,9.67l0,0
		c-0.52,0.19-0.88,0.69-0.85,1.27C387.25,69.34,387.29,69.5,387.35,69.65z"/>
	<path class="st64" d="M389.26,70.19l6.42,3.6c-0.01,0.01-0.02,0.02-0.04,0.03c-0.38,0.37-0.8,0.75-1.41,0.68
		c-0.08-0.01-0.16,0.06-0.29,0.11c0.03,0.09,0.06,0.18,0.06,0.18c-0.44,0.43-0.84,0.82-1.19,1.17c-0.06,0.41-0.08,0.79-0.18,1.15
		c-0.2,0.72,0.17,1.27,0.42,1.91c-0.16,0.23-0.35,0.27-0.61,0.08c-0.09-0.07-0.22-0.1-0.33-0.13c-0.55-0.18-1.14-0.26-1.63-0.56
		c-0.31-0.19-0.59-0.65-0.66-1.04c-0.15-0.8-0.69-1.29-1.11-1.89c-0.3-0.43-0.52-0.93-0.73-1.42c-0.38-0.88-1.79-1.67-2.58-1.39
		c-0.17,0.06-0.32,0.23-0.45,0.38c-0.1,0.11-0.13,0.28-0.2,0.42c-0.27,0.54-0.43,0.58-0.93,0.25c-0.27-0.18-0.54-0.35-0.81-0.54
		l4.59-3.15c0.25,0.25,0.6,0.4,0.97,0.38C388.84,70.4,389.07,70.32,389.26,70.19z"/>
	<path class="st2" d="M389.69,68.54c-0.21-0.42-0.64-0.71-1.14-0.71l-1.64-9.67c0.3-0.11,0.55-0.32,0.69-0.6l12.34,5.21
		c-0.01,0.09,0,0.18,0.01,0.27L389.69,68.54z"/>
	<path class="st2" d="M400.44,63.85l-0.87,8.68c-0.47-0.05-0.94-0.15-1.41-0.14c-0.36,0.02-0.71,0.22-1.07,0.29
		c-0.24,0.05-0.5-0.01-0.74,0.02c-0.1,0.01-0.27,0.15-0.27,0.18c0.07,0.23,0.02,0.4-0.07,0.55l-6.41-3.59
		c0.16-0.22,0.24-0.49,0.23-0.78c0-0.02,0-0.05-0.01-0.07l10.29-5.51C400.19,63.62,400.31,63.75,400.44,63.85z"/>
	<path class="st64" d="M418.18,75.1c0.08,0.46,0.18,0.92-0.03,1.38c-0.01,0.03-0.01,0.06-0.01,0.09c-0.05,0.75-0.09,0.8-0.78,0.94
		c-0.26-0.23-0.49-0.43-0.72-0.63c-0.13-0.11-0.26-0.23-0.39-0.34c-0.13-0.11-0.28-0.21-0.38-0.35c-0.31-0.45-0.56-0.91-1.08-1.17
		c-0.22-0.11-0.41-0.42-0.49-0.67c-0.07-0.23,0.02-0.52,0.03-0.84c-0.04-0.02-0.14-0.08-0.28-0.15c-0.02,0.15-0.03,0.26-0.03,0.38
		c-0.06-0.02-0.13-0.03-0.13-0.04c-0.03-0.28-0.1-0.57-0.08-0.84c0.05-0.47,0-0.91-0.31-1.26c-0.16-0.17-0.43-0.24-0.62-0.38
		c-0.37-0.28-0.7-0.62-1.09-0.87c-0.29-0.18-0.55-0.19-0.85,0.16c-0.29,0.33-0.76,0.5-1.15,0.74c-0.23-0.45-0.43-0.82-0.94-0.8
		c-0.12,0.01-0.25-0.09-0.37-0.14c-0.33-0.12-0.64-0.23-1.01-0.04c-0.28,0.15-0.63,0.15-0.92,0.28c-0.4,0.2-0.54,0-0.64-0.34
		c-0.02-0.05-0.06-0.09-0.15-0.24c-0.05,0.26-0.09,0.42-0.14,0.64c-0.23,0.02-0.47,0.05-0.72,0.08c-0.19,0.03-0.4,0.02-0.56,0.11
		c-0.46,0.26-0.9,0.43-1.43,0.19c-0.08-0.03-0.25,0.11-0.35,0.2c-0.04,0.03,0,0.23,0.02,0.24c0.12,0.03,0.26,0.06,0.38,0.03
		c0.22-0.06,0.46-0.32,0.5,0.15c0.08-0.02,0.11-0.02,0.13-0.03c0.19-0.08,0.37-0.16,0.56-0.25c-0.07,0.18-0.1,0.38-0.21,0.54
		c-0.29,0.42-0.27,0.52,0.2,0.73c0.13,0.06,0.27,0.12,0.44,0.19c-0.07,0.1-0.1,0.16-0.15,0.2c-0.06,0.04-0.13,0.07-0.14,0.08
		c-0.37-0.22-0.7-0.41-1.07-0.62c-0.04,0.14-0.06,0.25-0.11,0.35c-0.03,0.07-0.12,0.19-0.14,0.19c-0.34-0.19-0.61,0.02-0.91,0.11
		c-0.11,0.03-0.29-0.07-0.4-0.15c-0.31-0.22-0.6-0.49-0.93-0.7c-0.17-0.1-0.44-0.26-0.55,0.07c-0.04,0.11-0.09,0.18-0.15,0.21
		l0.85-8.43c0.09,0.03,0.18,0.04,0.28,0.05c0.53,0.04,1.01-0.26,1.23-0.7l9.17,4.93c-0.05,0.15-0.07,0.3-0.06,0.46
		c0.03,0.72,0.63,1.27,1.35,1.24c0.71-0.03,1.26-0.63,1.23-1.35c-0.01-0.13-0.03-0.25-0.07-0.37l0.76-0.43
		c-0.02,1.27,0.67,2.34,1.53,3.32c0.28,0.31,0.48,0.61,0.6,1.08c0.14,0.59,0.56,1.1,0.85,1.65c0.14,0.26,0.35,0.53,0.38,0.81
		C418.15,74.89,418.16,74.99,418.18,75.1z"/>
	<path class="st64" d="M386.06,43.83l-10.68,8.62c-0.23-0.18-0.52-0.27-0.83-0.26c-0.08,0-0.15,0.01-0.23,0.03l-3.6-8.5
		c0.29-0.19,0.5-0.49,0.57-0.85l14.62,0.57C385.95,43.58,385.99,43.71,386.06,43.83z"/>
	<path class="st2" d="M386.9,44.47l-0.59,11.18c-0.41,0.05-0.76,0.3-0.95,0.64l-9.45-2.87c-0.01-0.24-0.08-0.46-0.21-0.64
		l10.65-8.59C386.51,44.33,386.69,44.43,386.9,44.47z"/>
	<path class="st2" d="M369.98,41.34c-0.21,0.01-0.4,0.07-0.57,0.16l-3.37-4.13l-0.08-0.1c0.04,0.01,0.08,0.02,0.13,0.03
		c3.83,0.9,7.72,1.46,11.62,1.93c3.93,0.47,7.86,0.69,11.79,0.66l-1.71,2.18c-0.19-0.11-0.42-0.16-0.66-0.15
		c-0.61,0.03-1.11,0.48-1.21,1.06L371.3,42.4C371.19,41.78,370.63,41.32,369.98,41.34z"/>
	<path class="st2" d="M399.36,48.96c0.01,0.13,0.03,0.25,0.07,0.37l-11.97,6.78c-0.18-0.21-0.42-0.37-0.69-0.43l0.59-11.18
		c0.4-0.05,0.74-0.29,0.94-0.61l11.07,4.84C399.36,48.8,399.36,48.88,399.36,48.96z"/>
	<path class="st64" d="M399.74,47.99c-0.09,0.08-0.16,0.18-0.22,0.3l-11.06-4.84l0,0c0.02-0.09,0.02-0.19,0.02-0.29
		c-0.01-0.3-0.13-0.59-0.32-0.8l1.94-2.47l0,0c1.12-0.02,2.25-0.06,3.37-0.12c0.19-0.01,0.41,0.02,0.52-0.11L399.74,47.99z"/>
	<path class="st64" d="M400.48,50.18l0.48,11.4c-0.39,0.09-0.73,0.36-0.89,0.73l-12.31-5.2c0.01-0.07,0.02-0.15,0.01-0.23
		c-0.01-0.13-0.03-0.25-0.07-0.37l11.97-6.78C399.87,49.97,400.16,50.14,400.48,50.18z"/>
	<path class="st2" d="M400.6,47.61c-0.17,0.01-0.33,0.05-0.48,0.11l-5.18-7.52c0.16,0.07,0.36,0.09,0.57,0.09
		c0.2,0,0.41-0.02,0.61-0.01c0.26,0.03,0.53,0.04,0.77,0.13c0.43,0.17,0.84,0.4,1.27,0.59c0.05,0.02,0.13,0.03,0.17,0
		c0.3-0.22,0.6-0.26,0.96-0.18c0.32,0.07,0.65,0.09,1.01,0.19c-1.07,0.47-1.81,1.31-2.53,2.25c0.58,0.24,0.89-0.39,1.38-0.41
		l0.02,0.38c0.42,0.26,0.7,0,1.06-0.18c0.65-0.33,1.18-0.79,1.69-1.31c0.12-0.12,0.32-0.14,0.49-0.21c0.02,0.03,0.04,0.07,0.05,0.1
		c-0.24,0.31-0.48,0.62-0.72,0.93c0.03,0.04,0.06,0.08,0.09,0.12c0.44-0.23,0.76-0.07,1.14,0.19c0.25,0.18,0.7,0.22,1,0.12
		c0.57-0.18,1.1-0.49,1.72-0.79c-0.03,0.53,0.2,0.58,0.54,0.5c0.13-0.03,0.3,0.02,0.42,0.08c0.28,0.16,0.55,0.35,0.85,0.53
		c-0.03,0.01-0.13,0.06-0.24,0.08c-0.33,0.07-0.65,0.13-0.98,0.19c-0.04,0.01-0.1,0.03-0.12,0.01c-0.56-0.37-0.99,0.13-1.46,0.26
		c-0.2,0.05-0.33,0.36-0.49,0.56c-0.16-0.25-0.49-0.3-0.59-0.1c-0.29,0.63-0.57,1.27-0.84,1.91c-0.03,0.06-0.01,0.14,0.09,0.28
		c0.3-0.41,0.6-0.82,0.96-1.32c-0.06,0.25-0.11,0.4-0.14,0.56c-0.16,0.9-0.43,1.81-0.43,2.71c0,0.69,0.04,1.45,0.44,2.08l-1.83-1.17
		c0.07-0.17,0.11-0.35,0.1-0.55C401.92,48.13,401.31,47.58,400.6,47.61z"/>
	<path class="st2" d="M414.13,58.43c0,0.08,0.01,0.15,0.03,0.23l-11.83,3.5c-0.2-0.32-0.53-0.54-0.92-0.6l-0.48-11.4
		c0.26-0.06,0.49-0.19,0.66-0.37l12.63,8.11C414.16,58.06,414.12,58.24,414.13,58.43z"/>
	<path class="st2" d="M415.64,59.66l1.4,3.87c-0.19,0.58-0.6,1-1.02,1.37c-0.62,0.54-0.89,1.25-1.1,1.99
		c-0.05,0.16-0.08,0.33-0.11,0.49l-1.04,0.59c-0.24-0.3-0.63-0.48-1.04-0.47c-0.39,0.02-0.73,0.2-0.95,0.48l-9.26-4.99
		c0-0.02,0.01-0.04,0.01-0.06c0.01-0.12,0-0.23-0.02-0.34l11.84-3.5c0.24,0.37,0.66,0.61,1.14,0.59
		C415.53,59.67,415.58,59.66,415.64,59.66z"/>
	<path class="st2" d="M420.58,49.93c0.26,0.2,0.43,0.97,0.23,1.5c-0.16,0.41-0.35,0.81-0.51,1.17c-0.36-0.21-0.71-0.42-1.07-0.63
		c-0.02,0.01-0.04,0.02-0.06,0.04c0.28,0.34,0.53,0.7,0.83,1.02c0.36,0.37,0.31,0.79,0.2,1.21c-0.14,0.53-0.32,1.04-0.52,1.69
		c-0.04-0.3-0.06-0.47-0.07-0.64c-0.01-0.23,0.27-0.46-0.07-0.7c-0.18-0.12-0.25-0.35-0.51-0.44c-0.18-0.06-0.3-0.46-0.34-0.74
		c-0.07-0.39-0.05-0.8-0.06-1.16c-0.61,0.54-0.6,0.8,0.18,2.31c-0.22-0.02-0.42-0.04-0.63-0.06c-0.01,0.04-0.01,0.07-0.02,0.11
		c0.08,0.02,0.17,0.04,0.25,0.07c0.3,0.11,0.64,0.13,0.6,0.64c-0.02,0.21,0.19,0.44,0.04,0.7c-0.02,0.03,0.15,0.18,0.24,0.3
		c-0.08,0.06-0.16,0.12-0.33,0.25c0.18-0.01,0.28,0.01,0.36-0.02c0.45-0.15,0.55-0.07,0.6,0.41c0.02,0.19,0.15,0.37,0.24,0.59
		c-0.25,0.2-0.54,0.42-0.86,0.67c0.41-0.05,0.77-0.08,1.12-0.12c0.25,0.66-0.12,1.08-0.78,0.99c0,0.27,0,0.55,0,0.86
		c0.08-0.03,0.24-0.08,0.39-0.14c0.03,0.03,0.06,0.07,0.09,0.1c-0.16,0.14-0.3,0.3-0.48,0.4c-0.56,0.33-1.01,0.76-1.15,1.42
		c-0.07,0.3-0.21,0.46-0.48,0.52c-0.34,0.07-0.6,0.27-0.75,0.54l-1.19-3.29c0.4-0.23,0.66-0.67,0.64-1.17
		c-0.02-0.49-0.31-0.9-0.72-1.1l2.5-8.68c0.06,0.01,0.12,0.01,0.18,0.01c0.24-0.01,0.45-0.08,0.64-0.2l1.39,1.5
		C420.67,49.88,420.62,49.9,420.58,49.93z"/>
	<path class="st64" d="M417.33,47.31c0.02,0.49,0.31,0.9,0.72,1.1l-2.5,8.68c-0.06-0.01-0.12-0.01-0.18-0.01
		c-0.35,0.01-0.66,0.17-0.89,0.41l-9.87-6.34c0.13-0.06,0.24-0.13,0.29-0.23c0.45-0.75,0.64-1.56,0.2-2.41
		c-0.32-0.63-0.45-1.24-0.3-1.97c0.1-0.53,0.19-1,0.65-1.34c0.03,0.11,0.06,0.22,0.08,0.34c0.02,0,0.05,0,0.07,0.01
		c0.11-0.43,0.24-0.85,0.34-1.28c0.07-0.29,0.21-0.44,0.5-0.35c0.43,0.13,0.85,0.27,1.27,0.43c0.1,0.04,0.25,0.14,0.26,0.23
		c0.07,0.74,0.56,1.52-0.2,2.19c-0.07,0.06,0.03,0.34,0.06,0.51c0.14-0.07,0.31-0.11,0.41-0.21c0.09-0.09,0.1-0.27,0.19-0.36
		c0.12-0.12,0.29-0.24,0.43-0.24c0.12,0,0.3,0.15,0.35,0.28c0.16,0.44,0.25,0.92,0.43,1.36c0.18,0.47-0.24,0.69-0.34,1.03
		c-0.11,0.42-0.29,0.82-0.44,1.23c0.32,0.13,0.61,0.3,0.92,0.36c0.18,0.04,0.4-0.06,0.6-0.14c1.14-0.51,2.04-1.4,2.97-2.21
		c0.18-0.16,0.33-0.37,0.41-0.59c0.06-0.16,0.06-0.43-0.04-0.57c-0.21-0.32-0.12-0.49,0.16-0.62c0.39-0.16,0.76-0.39,1.23-0.25
		c0.38,0.11,1.39-0.46,1.49-0.84c0.06-0.2-0.07-0.46-0.12-0.69c-0.02-0.11-0.08-0.26-0.05-0.34c0.14-0.3,0.31-0.58,0.47-0.87
		c0.29-0.54,0.62-0.95,1.28-1.09c0.28-0.06,0.57-0.13,0.85-0.22l-0.5,3.64C417.86,46,417.3,46.6,417.33,47.31z"/>
	<path class="st2" d="M424.28,46.8c-0.04,0.01-0.07,0.01-0.11,0c-0.27-0.07-0.31,0.13-0.45,0.23c-0.07,0.05-0.14,0.08-0.22,0.12
		c-0.07,0.03-0.15,0.07-0.21,0.12c-0.21,0.16-0.4,0.38-0.64,0.48c-0.69,0.28-1.33,0.65-1.86,1.2c-0.04,0.04-0.06,0.1-0.1,0.19
		l-1.03-1.11v0c0.18-0.23,0.27-0.52,0.26-0.83c-0.02-0.55-0.39-1.01-0.89-1.17l0.54-3.85c0.48-0.15,0.96-0.32,1.44-0.48
		c0.15-0.05,0.25-0.26,0.37-0.41c0,0,0,0,0,0c0.05-0.06,0.06-0.19,0.12-0.22c0.23-0.12,0.39-0.27,0.49-0.43
		c0.25-0.37,0.24-0.86,0.22-1.38c-0.02-0.62,0.01-1.23,0.2-1.85c0.85,1.41,1.6,2.89,2.24,4.43c-0.07,0.12-0.13,0.25-0.16,0.41
		c-0.05,0.28-0.48,0.47-0.72,0.72c-0.11,0.12-0.22,0.26-0.27,0.41c-0.05,0.15-0.09,0.31-0.13,0.46c-0.05,0.18-0.08,0.37-0.11,0.56
		c-0.03,0.23,0.06,0.46,0.07,0.7c0.02,0.19,0.01,0.38,0.02,0.62c0.14,0.12,0.34,0.25,0.5,0.43c0.14,0.15,0.25,0.24,0.33,0.28
		c0.14,0.06,0.25-0.01,0.49-0.22C424.73,46.4,424.51,46.75,424.28,46.8z"/>
	<path class="st2" d="M427.15,52.16c-0.3-3.65-1.16-7.11-2.5-10.32c-0.64-1.54-1.39-3.02-2.24-4.43
		c-6.1-10.15-17.3-16.81-29.84-16.81c-0.93,0-1.88,0.04-2.83,0.11c-11.77,0.94-21.7,7.57-27.23,16.94c-0.2,0.32-0.38,0.66-0.56,0.99
		c-3.08,5.63-4.6,12.18-4.04,19.03c1.47,17.96,16.66,31.57,34.58,31.57c0.93,0,1.88-0.04,2.83-0.12
		C414.44,87.6,428.69,71.05,427.15,52.16z M417.86,74.15c-0.28,0.36-0.56,0.7-0.86,1.05c-0.33,0.38-0.66,0.76-1.01,1.13
		c-5.46,5.84-12.82,9.38-20.9,10.03c-0.86,0.07-1.74,0.11-2.6,0.11c-8.01,0-15.68-2.96-21.6-8.33c-5.58-5.06-9.12-11.85-10.07-19.24
		c-0.06-0.48-0.11-0.96-0.15-1.45c-0.04-0.52-0.07-1.05-0.09-1.56v0c-0.06-2.09,0.07-4.17,0.42-6.19c0.02-0.15,0.05-0.31,0.08-0.46
		c0.75-4.09,2.32-7.98,4.64-11.5c0.08-0.13,0.18-0.27,0.27-0.4c0-0.01,0.01-0.02,0.02-0.04c0.63-0.92,1.31-1.81,2.04-2.67
		c5.54-6.51,13.32-10.47,21.9-11.15c0.86-0.07,1.74-0.1,2.61-0.1c8,0,15.68,2.96,21.6,8.33c3.03,2.75,5.46,6.01,7.2,9.6
		c0.91,1.87,1.63,3.83,2.14,5.85c0.44,1.71,0.74,3.45,0.88,5.23C425.03,60.26,422.71,67.94,417.86,74.15z"/>
</g>
</svg>
